<svg xmlns="http://www.w3.org/2000/svg" viewBox="0 0 148.16 34.2"><defs><style>.cls-1{fill:#0b1c40;}.cls-2{fill:#f68b1f;}</style></defs><title>Asset 7</title><g id="Layer_2" data-name="Layer 2"><g id="Layer_1-2" data-name="Layer 1"><path class="cls-1" d="M44.82,16.72,40,14.78a2.05,2.05,0,0,1-1.31-2.41,2.06,2.06,0,0,1,2.12-1.75h4.25a1.38,1.38,0,0,0,0-2.75H40.84a4.79,4.79,0,0,0-4.82,4,4.79,4.79,0,0,0,3,5.49l4.79,1.93A2.24,2.24,0,0,1,43,23.58H38.21a1.38,1.38,0,0,0,0,2.76H43a5,5,0,0,0,1.87-9.62Z"/><path class="cls-1" d="M61.06,12.3A4.49,4.49,0,0,0,58,13.57a4.47,4.47,0,0,0-7.59,3.22V25a1.38,1.38,0,1,0,2.75,0V16.79a1.74,1.74,0,1,1,3.47,0V25a1.38,1.38,0,1,0,2.75,0V16.79a1.74,1.74,0,1,1,3.47,0V25a1.38,1.38,0,1,0,2.75,0V16.79A4.5,4.5,0,0,0,61.06,12.3Z"/><path class="cls-1" d="M88.44,12.3H86a4.52,4.52,0,0,0-4.51,4.52V25a1.38,1.38,0,1,0,2.75,0V16.82A1.77,1.77,0,0,1,86,15.05h2.4a1.38,1.38,0,1,0,0-2.75Z"/><path class="cls-1" d="M131.85,15.05h2.4a1.38,1.38,0,0,0,0-2.75h-2.4a4.53,4.53,0,0,0-4.52,4.52v5a4.53,4.53,0,0,0,4.52,4.52h2.4a1.38,1.38,0,0,0,0-2.76h-2.4a1.77,1.77,0,0,1-1.77-1.76v-5A1.78,1.78,0,0,1,131.85,15.05Z"/><path class="cls-1" d="M98.82,23.58H96.43a1.76,1.76,0,0,1-1.77-1.76V15.05h3a1.38,1.38,0,0,0,0-2.75h-3V9.25a1.38,1.38,0,1,0-2.75,0V21.82a4.53,4.53,0,0,0,4.52,4.52h2.39a1.38,1.38,0,0,0,0-2.76Z"/><path class="cls-1" d="M111.34,7.87h-3.87A4.53,4.53,0,0,0,103,12.39V25a1.38,1.38,0,1,0,2.75,0V18.48h4.46a1.38,1.38,0,1,0,0-2.75H105.7V12.39a1.77,1.77,0,0,1,1.77-1.77h3.87a1.38,1.38,0,1,0,0-2.75Z"/><path class="cls-1" d="M142.92,12.3a5.24,5.24,0,0,0-5.23,5.24V21.1a5.24,5.24,0,0,0,5.23,5.24H146a1.38,1.38,0,0,0,0-2.76h-3.08a2.48,2.48,0,0,1-2.48-2.48h6.35a1.37,1.37,0,0,0,1.37-1.38V17.54A5.25,5.25,0,0,0,142.92,12.3Zm2.49,6h-5v-.8a2.49,2.49,0,1,1,5,0Z"/><path class="cls-1" d="M77.4,12.3a1.38,1.38,0,0,0-1.29.92,4.09,4.09,0,0,0-2.57-.92,5.25,5.25,0,0,0-5.24,5.24V21.1a5.25,5.25,0,0,0,5.24,5.24,4.09,4.09,0,0,0,2.57-.92A1.37,1.37,0,0,0,78.78,25V13.68A1.38,1.38,0,0,0,77.4,12.3ZM73.54,23.59h0a2.5,2.5,0,0,1-2.49-2.49V17.54a2.49,2.49,0,0,1,5,0V21.1A2.5,2.5,0,0,1,73.54,23.59Z"/><path class="cls-1" d="M123.21,12.3a1.38,1.38,0,0,0-1.29.92,4.1,4.1,0,0,0-2.58-.92,5.24,5.24,0,0,0-5.23,5.24V21.1a5.24,5.24,0,0,0,5.23,5.24,4.1,4.1,0,0,0,2.58-.92,1.37,1.37,0,0,0,2.66-.46V13.68A1.37,1.37,0,0,0,123.21,12.3Zm-3.87,11.29h0a2.49,2.49,0,0,1-2.48-2.49V17.54a2.49,2.49,0,1,1,5,0V21.1A2.49,2.49,0,0,1,119.34,23.59Z"/><path class="cls-2" d="M20.24,11.81A1,1,0,0,1,19.8,10l4.51-2.26L19.8,5.44a1,1,0,0,1,.88-1.76L27,6.81a1,1,0,0,1,.54.88,1,1,0,0,1-.54.88l-6.27,3.14A1,1,0,0,1,20.24,11.81Z"/><path class="cls-2" d="M20.24,30.63a1,1,0,0,1-.44-1.86l4.51-2.26L19.8,24.25a1,1,0,1,1,.88-1.75L27,25.63a1,1,0,0,1,0,1.76l-6.27,3.14A1,1,0,0,1,20.24,30.63Z"/><path class="cls-2" d="M7.69,30.63a1,1,0,0,1-.44-.1L1,27.39a1,1,0,0,1,0-1.76L7.25,22.5a1,1,0,1,1,.88,1.75L3.62,26.51l4.51,2.26a1,1,0,0,1-.44,1.86Z"/><path class="cls-2" d="M7.69,11.81a1,1,0,0,1-.44-.1L1,8.57a1,1,0,0,1-.54-.88A1,1,0,0,1,1,6.81L7.25,3.68a1,1,0,1,1,.88,1.76L3.62,7.69,8.13,10a1,1,0,0,1-.44,1.86Z"/><circle class="cls-1" cx="26.51" cy="7.69" r="1.42"/><circle class="cls-1" cx="26.51" cy="13.97" r="1.42"/><circle class="cls-1" cx="26.51" cy="20.24" r="1.42"/><circle class="cls-1" cx="26.51" cy="26.51" r="1.42"/><circle class="cls-1" cx="20.24" cy="4.56" r="1.42"/><circle class="cls-1" cx="20.24" cy="10.83" r="1.42"/><circle class="cls-1" cx="20.24" cy="17.1" r="1.42"/><circle class="cls-1" cx="20.24" cy="23.37" r="1.42"/><circle class="cls-1" cx="20.24" cy="29.65" r="1.42"/><circle class="cls-1" cx="13.97" cy="1.42" r="1.42"/><circle class="cls-1" cx="13.97" cy="7.69" r="1.42"/><circle class="cls-1" cx="13.97" cy="13.97" r="1.42"/><circle class="cls-1" cx="13.97" cy="20.24" r="1.42"/><circle class="cls-1" cx="13.97" cy="26.51" r="1.42"/><circle class="cls-1" cx="13.97" cy="32.78" r="1.42"/><circle class="cls-1" cx="7.69" cy="4.56" r="1.42"/><circle class="cls-1" cx="7.69" cy="10.83" r="1.42"/><circle class="cls-1" cx="7.69" cy="17.1" r="1.42"/><circle class="cls-1" cx="7.69" cy="23.37" r="1.42"/><circle class="cls-1" cx="7.69" cy="29.65" r="1.42"/><circle class="cls-1" cx="1.42" cy="7.69" r="1.42"/><circle class="cls-1" cx="1.42" cy="13.97" r="1.42"/><circle class="cls-1" cx="1.42" cy="20.24" r="1.42"/><circle class="cls-1" cx="1.42" cy="26.51" r="1.42"/></g></g></svg>